<svg height="512" viewBox="0 0 512 512" width="512" xmlns="http://www.w3.org/2000/svg"><g id="Flat"><path d="m257.594 101.638-7.195 7.194v14.39h-21.584l3.185 36.778-31.963-8v-68.349a25.181 25.181 0 1 1 50.362 0v3.6z" fill="#feb784"/><path d="m197.01 71.278h-30.291a22.719 22.719 0 0 0 -22.719 22.722v53.011h7.573a22.719 22.719 0 0 0 22.719-22.719v-30.292l22.718-7.572z" fill="#6e3c26"/><path d="m208.679 104.489-5.454-5.454a8.836 8.836 0 0 1 10.285-14.109l1.919.985 19.214-25.611a25.067 25.067 0 0 0 -9.425-1.826h-11.448q-.677 0-1.347.027c-18.758.754-32.63 17.851-30.3 36.48l.164.98a63.6 63.6 0 0 0 17.753 34.459z" fill="#6e3c26"/><path d="m208 464 25.194 6.3a8.984 8.984 0 0 1 6.806 8.715 8.985 8.985 0 0 1 -8.985 8.985h-55.015a86.191 86.191 0 0 1 5.743-30.934l12.717-33.066 21.54-64-84.143-38.835a34.181 34.181 0 0 1 -19.857-31.034 34.174 34.174 0 0 1 5.52-18.624l8.66-13.326 37.38-57.49 36.44-56.691 40 16 9.468 28.4a27.044 27.044 0 0 1 -10.655 31.054 27.039 27.039 0 0 1 -15 4.542h-7.813l-32 24v40l56.527 31.4a40.8 40.8 0 0 1 19.766 25.767 40.8 40.8 0 0 1 -3.242 28.443l-25.721 50.394z" fill="#fec093"/><path d="m238.81 219.46a27.043 27.043 0 0 1 -15 4.54h-7.81l-52.44-23.31 16.68-25.94 19.76-30.75 40 16 1.26 3.77 8.21 24.63a27.062 27.062 0 0 1 -10.66 31.06z" fill="#c378cb"/><path d="m257.051 373.614-25.721 50.386h-36.87l21.54-64-84.143-38.835a34.181 34.181 0 0 1 -19.857-31.034 34.174 34.174 0 0 1 5.52-18.624l8.66-13.326 57.82 8.9v20.919l56.527 31.4a40.8 40.8 0 0 1 19.766 25.767 40.8 40.8 0 0 1 -3.242 28.447z" fill="#bc4598"/><path d="m172.377 290.577-16.777-7.852a8 8 0 0 1 -3.6-10.725 8 8 0 0 1 10.725-3.6l16.775 7.85a8 8 0 0 1 3.6 10.725 8 8 0 0 1 -10.723 3.602z" fill="#a33484"/><path d="m394.519 59.986-82.519 60.014-70.74 43.77-17.26 12.23a43.194 43.194 0 0 1 -32.971 2.345l-10.789-3.595 16.392-25.508a57.915 57.915 0 0 1 7.774-9.648l2.623-2.623a57.94 57.94 0 0 1 40.971-16.971l48-24 40-24 16-40 8 16 16.152-16.152a8 8 0 0 1 12.812 2.08l8 16.01a8 8 0 0 1 -2.445 10.048z" fill="#fec093"/></g></svg>