<svg height="512" viewBox="0 0 512 512" width="512" xmlns="http://www.w3.org/2000/svg"><g id="Flat"><path d="m304 168h16l-8-16v-48a24 24 0 0 0 -24-24h-32v16l24 8v40a24 24 0 0 0 24 24z" fill="#61311c"/><path d="m448 160-56 8-104-6.933-32-1.067-5-25.25c5.812-8.015 15.261-26.442 16.5-35.25 2.25-16-12.068-30.714-24.828-34.521a23.275 23.275 0 0 0 -8.568-.9 23.841 23.841 0 0 0 -9.153 2.667 24.33 24.33 0 0 0 -11.824 14.161l-1.05 3.288-12.077 11.489 6.807 7.174-3.649 11.429a8 8 0 0 0 5.188 10.054l7.621 2.433c.024.9 5.744 21.727 8.033 33.226l-1.455 1.164-102.545 6.836-56-8h-40v24l16 8h24l56 8h64.145a21.825 21.825 0 0 0 11.935 22.04l3.92 1.96v48h64l-8-32 8-32 24-8h104l56-8h24l16-8v-24z" fill="#fec093"/><path d="m264 208-6 24h-58v-8l-3.92-1.96a21.854 21.854 0 0 1 -3.88-36.6l31.8-25.44s-8 32 32 0l-3.1 6.2a32.675 32.675 0 0 0 11.1 41.8z" fill="#c378cb"/><path d="m244.54 111.924 6.494-3.421a8.576 8.576 0 0 0 4.541-7.05 8.3 8.3 0 0 0 -9.667-8.8l-2.012.35-9.796-28.926a23.285 23.285 0 0 1 9 1.036l10.3 3.287q.607.194 1.2.411c16.638 6.071 24.116 25.68 16.588 42.041l-.434.849c-5.778 11.299-8.611 17.18-19.754 23.049z" fill="#6e3c26"/><path d="m480 408v40h-48v-8l16-16-46.65-14.73-105.35-33.27-72-40-128-16v118.7a9.3 9.3 0 0 1 -9.3 9.3h-45.4a9.3 9.3 0 0 1 -2.94-18.12l17.64-5.88 8-8-2.43-31.59-4.69-61.01a40.308 40.308 0 0 1 40.19-43.4h102.93v-8h64l16 32 64 48 63.57 26.17z" fill="#fec093"/><path d="m407.57 378.17-6.22 31.1-105.35-33.27-72-40-128-16v64h-32l-2.43.41-4.69-61.01a40.308 40.308 0 0 1 40.19-43.4h102.93v-8h64l16 32 64 48z" fill="#bc4598"/></g></svg>